# This file uses centimeters as units for non-parametric coordinates.

mtllib table.mtl
g default
v 14.700969 0.801497 -29.312645
v 14.644705 0.801497 -34.463588
v 14.700969 1.644500 -29.312645
v 14.644705 1.644500 -34.463588
v -15.252815 0.801497 -28.985458
v -15.309079 0.801497 -34.136401
v -15.252815 1.644500 -28.985458
v -15.309079 1.644500 -34.136401
v 14.869761 0.801497 -13.859822
v 14.813497 0.801497 -19.010764
v 14.869761 1.644500 -13.859822
v 14.813497 1.644500 -19.010764
v -15.084023 0.801497 -13.532635
v -15.140287 0.801497 -18.683577
v -15.084023 1.644500 -13.532635
v -15.140287 1.644500 -18.683577
v 15.038553 0.801497 1.593005
v 14.982289 0.801497 -3.557937
v 15.038553 1.644500 1.593005
v 14.982289 1.644500 -3.557937
v -14.915231 0.801497 1.920191
v -14.971495 0.801497 -3.230750
v -14.915231 1.644500 1.920191
v -14.971495 1.644500 -3.230750
v 15.207345 0.801497 17.045826
v 15.151081 0.801497 11.894884
v 15.207345 1.644500 17.045826
v 15.151081 1.644500 11.894884
v -14.746439 0.801497 17.373013
v -14.802703 0.801497 12.222071
v -14.746439 1.644500 17.373013
v -14.802703 1.644500 12.222071
v 15.376137 0.801497 32.498708
v 15.319873 0.801497 27.347763
v 15.376137 1.644500 32.498708
v 15.319873 1.644500 27.347763
v -14.577646 0.801497 32.825895
v -14.633910 0.801497 27.674949
v -14.577646 1.644500 32.825895
v -14.633910 1.644500 27.674949
v -12.860198 -2.216237 -43.683225
v -12.860198 20.601107 -43.683225
v -12.797182 -2.216237 -37.914171
v -12.797182 20.601107 -37.914171
v -17.633084 -2.216237 -43.631090
v -17.633084 20.601107 -43.631090
v -17.570068 -2.216237 -37.862036
v -17.570068 20.601107 -37.862036
v 16.970348 -2.216237 -44.009065
v 16.970348 20.601107 -44.009065
v 17.033363 -2.216237 -38.240011
v 17.033363 20.601107 -38.240011
v 12.197454 -2.216237 -43.956931
v 12.197454 20.601107 -43.956931
v 12.260470 -2.216237 -38.187877
v 12.260470 20.601107 -38.187877
v -11.993732 -2.216237 35.641270
v -11.993732 20.601107 35.641270
v -11.930716 -2.216237 41.410327
v -11.930716 20.601107 41.410327
v -16.766618 -2.216237 35.693404
v -16.766618 20.601107 35.693404
v -16.703602 -2.216237 41.462462
v -16.703602 20.601107 41.462462
v 17.836813 -2.216237 35.315429
v 17.836813 20.601107 35.315429
v 17.899829 -2.216237 41.084486
v 17.899829 20.601107 41.084486
v 13.063920 -2.216237 35.367564
v 13.063920 20.601107 35.367564
v 13.126936 -2.216237 41.136621
v 13.126936 20.601107 41.136621
v 16.880510 19.636428 -44.726109
v 17.485000 19.636428 -44.011493
v 17.485000 21.052680 -44.011493
v 16.880510 21.052680 -44.726109
v 18.414482 19.636428 41.082062
v 17.825745 19.636428 41.809712
v 17.825745 21.052680 41.809712
v 18.414482 21.052680 41.082062
v -18.311650 19.636428 -43.620485
v -17.722918 19.636428 -44.348134
v -17.722918 21.052680 -44.348134
v -18.311650 21.052680 -43.620485
v -16.777682 19.636428 42.187687
v -17.382169 19.636428 41.473071
v -17.382169 21.052680 41.473071
v -16.777682 21.052680 42.187687
v 13.586796 -0.182008 -41.813916
v 13.586796 2.628009 -41.813916
v 13.603676 -0.182008 -40.268632
v 13.603676 2.628009 -40.268632
v -14.411980 -0.182008 -41.508084
v -14.411980 2.628009 -41.508084
v -14.395100 -0.182008 -39.962800
v -14.395100 2.628009 -39.962800
v 14.452312 -0.182008 37.423635
v 14.452312 2.628009 37.423635
v 14.469192 -0.182008 38.968923
v 14.469192 2.628009 38.968923
v -13.546464 -0.182008 37.729467
v -13.546464 2.628009 37.729467
v -13.529584 -0.182008 39.274755
v -13.529584 2.628009 39.274755
v 14.061635 -0.182008 -38.972866
v 14.061635 2.628009 -38.972866
v 15.340085 -0.182008 -38.986830
v 15.340085 2.628009 -38.986830
v 14.887996 -0.182008 36.680093
v 14.887996 2.628009 36.680093
v 16.166446 -0.182008 36.666129
v 16.166446 2.628009 36.666129
v -15.861297 -0.182008 -38.646016
v -15.861297 2.628009 -38.646016
v -14.582847 -0.182008 -38.659980
v -14.582847 2.628009 -38.659980
v -15.034936 -0.182008 37.006943
v -15.034936 2.628009 37.006943
v -13.756486 -0.182008 36.992978
v -13.756486 2.628009 36.992978
vt 0.288755 0.874862
vt 0.288755 0.833957
vt 0.575084 0.833957
vt 0.575084 0.874862
vt 0.000000 0.881953
vt 0.000000 0.841049
vt 0.286329 0.841049
vt 0.286329 0.881953
vt 0.733306 0.752149
vt 0.733306 0.793053
vt 0.446976 0.793053
vt 0.446976 0.752149
vt 0.597287 0.040904
vt 0.597287 0.000000
vt 0.883616 0.000000
vt 0.883616 0.040904
vt 0.965091 0.000000
vt 0.965091 0.040904
vt 0.925597 0.040904
vt 0.925597 0.000000
vt 0.446976 0.752149
vt 0.446976 0.711245
vt 0.733305 0.711245
vt 0.733305 0.752149
vt 0.597287 0.204521
vt 0.597287 0.163616
vt 0.883616 0.163616
vt 0.883616 0.204521
vt 0.733305 0.793053
vt 0.733305 0.833957
vt 0.446976 0.833957
vt 0.446976 0.793053
vt 0.597287 0.245425
vt 0.597287 0.204521
vt 0.883616 0.204521
vt 0.883616 0.245425
vt 0.965091 0.040904
vt 0.965091 0.081809
vt 0.925597 0.081808
vt 0.925597 0.040904
vt 0.446976 0.711245
vt 0.446976 0.670341
vt 0.733305 0.670341
vt 0.733305 0.711245
vt 0.597287 0.081808
vt 0.597287 0.040904
vt 0.883616 0.040904
vt 0.883616 0.081808
vt 0.000000 0.841049
vt 0.000000 0.800145
vt 0.286329 0.800145
vt 0.286329 0.841049
vt 0.597287 0.163616
vt 0.597287 0.122712
vt 0.883616 0.122712
vt 0.883616 0.163616
vt 0.925597 0.122713
vt 0.925597 0.081808
vt 0.965091 0.081809
vt 0.965091 0.122713
vt 0.972984 0.987216
vt 0.921179 0.987262
vt 0.920863 0.624624
vt 0.972668 0.624579
vt 0.597287 0.122712
vt 0.597287 0.081808
vt 0.883616 0.081808
vt 0.883616 0.122712
vt 0.446976 0.670341
vt 0.446976 0.629436
vt 0.733306 0.629437
vt 0.733306 0.670341
vt 0.577509 0.874862
vt 0.577509 0.833957
vt 0.863837 0.833957
vt 0.863837 0.874862
vt 0.935054 0.136885
vt 0.986860 0.136840
vt 0.986903 0.186859
vt 0.935098 0.186904
vt 0.597287 0.289535
vt 0.802502 0.289535
vt 0.802502 0.333645
vt 0.597287 0.333645
vt 0.597287 0.510086
vt 0.802502 0.510086
vt 0.802502 0.554196
vt 0.597287 0.554196
vt 0.605198 0.943974
vt 0.605198 0.930741
vt 0.810413 0.930741
vt 0.810413 0.943974
vt 0.942071 0.299569
vt 0.961300 0.299276
vt 0.965842 0.597467
vt 0.946613 0.597760
vt 0.597287 0.333645
vt 0.802502 0.333645
vt 0.802502 0.377755
vt 0.597287 0.377755
vt 0.597287 0.554196
vt 0.802502 0.554196
vt 0.802502 0.598306
vt 0.597287 0.598306
vt 0.597287 0.624773
vt 0.597287 0.611540
vt 0.802501 0.611540
vt 0.802501 0.624773
vt 0.979621 0.539949
vt 0.994203 0.539887
vt 0.995169 0.766012
vt 0.980587 0.766074
vt 0.597287 0.377755
vt 0.802502 0.377755
vt 0.802502 0.421865
vt 0.597287 0.421866
vt 0.288755 0.874862
vt 0.493969 0.874862
vt 0.493969 0.918972
vt 0.288755 0.918972
vt 0.700131 0.930741
vt 0.700131 0.917508
vt 0.905346 0.917508
vt 0.905346 0.930741
vt 0.978635 0.209140
vt 0.992371 0.209082
vt 0.993282 0.422098
vt 0.979546 0.422157
vt 0.597287 0.421866
vt 0.802502 0.421866
vt 0.802502 0.465976
vt 0.597287 0.465976
vt 0.494443 0.874862
vt 0.699658 0.874862
vt 0.699658 0.918972
vt 0.494443 0.918972
vt 0.605198 0.957208
vt 0.605198 0.943974
vt 0.810413 0.943975
vt 0.810413 0.957208
vt 0.894695 0.338906
vt 0.910545 0.338838
vt 0.911595 0.584627
vt 0.895746 0.584695
vt 0.597287 0.245425
vt 0.802502 0.245425
vt 0.802502 0.289535
vt 0.597287 0.289535
vt 0.597287 0.465976
vt 0.802502 0.465976
vt 0.802502 0.510086
vt 0.597287 0.510086
vt 0.597287 0.611540
vt 0.597287 0.598306
vt 0.802501 0.598307
vt 0.802501 0.611540
vt 0.980237 0.781357
vt 0.993551 0.781300
vt 0.994433 0.987762
vt 0.981120 0.987819
vt 0.000000 0.881953
vt 0.198405 0.881953
vt 0.198405 0.924600
vt 0.000000 0.924600
vt 0.201733 0.918972
vt 0.400137 0.918972
vt 0.400137 0.961618
vt 0.201733 0.961618
vt 0.000000 0.950188
vt 0.000000 0.937394
vt 0.198405 0.937394
vt 0.198405 0.950188
vt 0.892991 0.597782
vt 0.910108 0.597709
vt 0.911243 0.863160
vt 0.894125 0.863233
vt 0.403465 0.918972
vt 0.601871 0.918972
vt 0.601871 0.961618
vt 0.403465 0.961618
vt 0.700131 0.874862
vt 0.898536 0.874862
vt 0.898536 0.917508
vt 0.700131 0.917508
vt 0.000000 0.937394
vt 0.000000 0.924600
vt 0.198405 0.924600
vt 0.198405 0.937394
vt 0.198405 0.987206
vt 0.198405 1.000000
vt 0.000000 1.000000
vt 0.000000 0.987206
vt 0.443523 0.757499
vt 0.000000 0.757499
vt 0.000000 0.714852
vt 0.443523 0.714852
vt 0.443523 0.672206
vt 0.000000 0.672206
vt 0.000000 0.629560
vt 0.443523 0.629559
vt 0.443521 0.961618
vt 0.443521 0.974412
vt 0.000000 0.974412
vt 0.000000 0.961618
vt 0.890498 0.961618
vt 0.890498 0.974412
vt 0.446976 0.974412
vt 0.446976 0.961618
vt 0.443522 0.800145
vt 0.000000 0.800145
vt 0.000000 0.757499
vt 0.443522 0.757499
vt 0.443521 0.714852
vt 0.000000 0.714852
vt 0.000000 0.672206
vt 0.443521 0.672206
vt 0.443520 0.974412
vt 0.443520 0.987206
vt 0.000000 0.987206
vt 0.000000 0.974412
vt 0.890500 0.974412
vt 0.890500 0.987206
vt 0.446976 0.987206
vt 0.446976 0.974412
vt 0.592452 0.000000
vt 0.597265 0.005245
vt 0.597265 0.624191
vt 0.592452 0.629436
vt 0.313344 0.629436
vt 0.308532 0.624191
vt 0.308532 0.005245
vt 0.313345 0.000000
vt 0.866264 0.864369
vt 0.866264 0.245425
vt 0.883588 0.245425
vt 0.883588 0.864369
vt 0.004813 0.629559
vt 0.000000 0.624313
vt 0.000000 0.005246
vt 0.004813 0.000000
vt 0.283975 0.000000
vt 0.288789 0.005246
vt 0.288789 0.624313
vt 0.283975 0.629559
vt 0.905819 0.305293
vt 0.905819 0.000000
vt 0.923204 0.000000
vt 0.923204 0.305293
vt 0.886042 0.310557
vt 0.886042 0.005264
vt 0.903426 0.005264
vt 0.903426 0.310557
vt 0.306116 0.629559
vt 0.288789 0.629559
vt 0.306116 0.624313
vt 0.288789 0.000000
vt 0.306116 0.000000
vt 0.306116 0.005246
vt 0.886042 0.000000
vt 0.903426 0.000000
vt 0.923204 0.310557
vt 0.905819 0.310557
vn 0.999940 0.000000 -0.010922
vn 0.999940 0.000000 -0.010922
vn 0.999940 0.000000 -0.010922
vn 0.999940 0.000000 -0.010922
vn 0.010922 0.000000 0.999940
vn 0.010922 0.000000 0.999940
vn 0.010922 0.000000 0.999940
vn 0.010922 0.000000 0.999940
vn -0.999940 0.000000 0.010922
vn -0.999940 0.000000 0.010922
vn -0.999940 0.000000 0.010922
vn -0.999940 0.000000 0.010922
vn -0.010922 0.000000 -0.999940
vn -0.010922 0.000000 -0.999940
vn -0.010922 0.000000 -0.999940
vn -0.010922 0.000000 -0.999940
vn 0.000000 -1.000000 0.000000
vn 0.000000 -1.000000 0.000000
vn 0.000000 -1.000000 0.000000
vn 0.000000 -1.000000 0.000000
vn 0.999940 0.000000 -0.010922
vn 0.999940 0.000000 -0.010922
vn 0.999940 0.000000 -0.010922
vn 0.999940 0.000000 -0.010922
vn 0.010922 0.000000 0.999940
vn 0.010922 0.000000 0.999940
vn 0.010922 0.000000 0.999940
vn 0.010922 0.000000 0.999940
vn -0.999940 0.000000 0.010922
vn -0.999940 0.000000 0.010922
vn -0.999940 0.000000 0.010922
vn -0.999940 0.000000 0.010922
vn -0.010922 0.000000 -0.999940
vn -0.010922 0.000000 -0.999940
vn -0.010922 0.000000 -0.999940
vn -0.010922 0.000000 -0.999940
vn 0.000000 -1.000000 0.000000
vn 0.000000 -1.000000 0.000000
vn 0.000000 -1.000000 0.000000
vn 0.000000 -1.000000 0.000000
vn 0.999940 0.000000 -0.010922
vn 0.999940 0.000000 -0.010922
vn 0.999940 0.000000 -0.010922
vn 0.999940 0.000000 -0.010922
vn 0.010922 0.000000 0.999940
vn 0.010922 0.000000 0.999940
vn 0.010922 0.000000 0.999940
vn 0.010922 0.000000 0.999940
vn -0.999940 0.000000 0.010922
vn -0.999940 0.000000 0.010922
vn -0.999940 0.000000 0.010922
vn -0.999940 0.000000 0.010922
vn -0.010922 0.000000 -0.999940
vn -0.010922 0.000000 -0.999940
vn -0.010922 0.000000 -0.999940
vn -0.010922 0.000000 -0.999940
vn 0.000000 -1.000000 0.000000
vn 0.000000 -1.000000 0.000000
vn 0.000000 -1.000000 0.000000
vn 0.000000 -1.000000 0.000000
vn 0.999940 0.000000 -0.010922
vn 0.999940 0.000000 -0.010922
vn 0.999940 0.000000 -0.010922
vn 0.999940 0.000000 -0.010922
vn 0.010922 0.000000 0.999940
vn 0.010922 0.000000 0.999940
vn 0.010922 0.000000 0.999940
vn 0.010922 0.000000 0.999940
vn -0.999940 0.000000 0.010922
vn -0.999940 0.000000 0.010922
vn -0.999940 0.000000 0.010922
vn -0.999940 0.000000 0.010922
vn -0.010922 0.000000 -0.999940
vn -0.010922 0.000000 -0.999940
vn -0.010922 0.000000 -0.999940
vn -0.010922 0.000000 -0.999940
vn 0.000000 -1.000000 0.000000
vn 0.000000 -1.000000 0.000000
vn 0.000000 -1.000000 0.000000
vn 0.000000 -1.000000 0.000000
vn -0.000000 1.000000 0.000000
vn -0.000000 1.000000 0.000000
vn -0.000000 1.000000 0.000000
vn -0.000000 1.000000 0.000000
vn 0.000000 -1.000000 0.000000
vn 0.000000 -1.000000 0.000000
vn 0.000000 -1.000000 0.000000
vn 0.000000 -1.000000 0.000000
vn 0.010922 0.000000 0.999940
vn 0.010922 0.000000 0.999940
vn 0.010922 0.000000 0.999940
vn 0.010922 0.000000 0.999940
vn -0.010922 0.000000 -0.999940
vn -0.010922 0.000000 -0.999940
vn -0.010922 0.000000 -0.999940
vn -0.010922 0.000000 -0.999940
vn -0.000000 1.000000 0.000000
vn -0.000000 1.000000 0.000000
vn -0.000000 1.000000 0.000000
vn -0.000000 1.000000 0.000000
vn 0.000000 -1.000000 0.000000
vn 0.000000 -1.000000 0.000000
vn 0.000000 -1.000000 0.000000
vn 0.000000 -1.000000 0.000000
vn 0.010922 0.000000 0.999940
vn 0.010922 0.000000 0.999940
vn 0.010922 0.000000 0.999940
vn 0.010922 0.000000 0.999940
vn -0.010922 0.000000 -0.999940
vn -0.010922 0.000000 -0.999940
vn -0.010922 0.000000 -0.999940
vn -0.010922 0.000000 -0.999940
vn -0.000000 1.000000 0.000000
vn -0.000000 1.000000 0.000000
vn -0.000000 1.000000 0.000000
vn -0.000000 1.000000 0.000000
vn 0.000000 -1.000000 0.000000
vn 0.000000 -1.000000 0.000000
vn 0.000000 -1.000000 0.000000
vn 0.000000 -1.000000 0.000000
vn 0.010922 0.000000 0.999940
vn 0.010922 0.000000 0.999940
vn 0.010922 0.000000 0.999940
vn 0.010922 0.000000 0.999940
vn -0.010922 0.000000 -0.999940
vn -0.010922 0.000000 -0.999940
vn -0.010922 0.000000 -0.999940
vn -0.010922 0.000000 -0.999940
vn -0.000000 1.000000 0.000000
vn -0.000000 1.000000 0.000000
vn -0.000000 1.000000 0.000000
vn -0.000000 1.000000 0.000000
vn 0.000000 -1.000000 0.000000
vn 0.000000 -1.000000 0.000000
vn 0.000000 -1.000000 0.000000
vn 0.000000 -1.000000 0.000000
vn 0.010922 0.000000 0.999940
vn 0.010922 0.000000 0.999940
vn 0.010922 0.000000 0.999940
vn 0.010922 0.000000 0.999940
vn -0.010922 0.000000 -0.999940
vn -0.010922 0.000000 -0.999940
vn -0.010922 0.000000 -0.999940
vn -0.010922 0.000000 -0.999940
vn -0.000000 1.000000 0.000000
vn -0.000000 1.000000 0.000000
vn -0.000000 1.000000 0.000000
vn -0.000000 1.000000 0.000000
vn 0.000000 -1.000000 0.000000
vn 0.000000 -1.000000 0.000000
vn 0.000000 -1.000000 0.000000
vn 0.000000 -1.000000 0.000000
vn 0.010922 0.000000 0.999940
vn 0.010922 0.000000 0.999940
vn 0.010922 0.000000 0.999940
vn 0.010922 0.000000 0.999940
vn -0.010922 0.000000 -0.999940
vn -0.010922 0.000000 -0.999940
vn -0.010922 0.000000 -0.999940
vn -0.010922 0.000000 -0.999940
vn 0.010922 0.000000 0.999940
vn 0.010922 0.000000 0.999940
vn 0.010922 0.000000 0.999940
vn 0.010922 0.000000 0.999940
vn -0.010922 0.000000 -0.999940
vn -0.010922 0.000000 -0.999940
vn -0.010922 0.000000 -0.999940
vn -0.010922 0.000000 -0.999940
vn 0.000000 -1.000000 0.000000
vn 0.000000 -1.000000 0.000000
vn 0.000000 -1.000000 0.000000
vn 0.000000 -1.000000 0.000000
vn -0.000000 1.000000 0.000000
vn -0.000000 1.000000 0.000000
vn -0.000000 1.000000 0.000000
vn -0.000000 1.000000 0.000000
vn 0.010922 0.000000 0.999940
vn 0.010922 0.000000 0.999940
vn 0.010922 0.000000 0.999940
vn 0.010922 0.000000 0.999940
vn -0.010922 0.000000 -0.999940
vn -0.010922 0.000000 -0.999940
vn -0.010922 0.000000 -0.999940
vn -0.010922 0.000000 -0.999940
vn 0.000000 -1.000000 0.000000
vn 0.000000 -1.000000 0.000000
vn 0.000000 -1.000000 0.000000
vn 0.000000 -1.000000 0.000000
vn -0.000000 1.000000 0.000000
vn -0.000000 1.000000 0.000000
vn -0.000000 1.000000 0.000000
vn -0.000000 1.000000 0.000000
vn 0.999940 0.000000 -0.010922
vn 0.999940 0.000000 -0.010922
vn 0.999940 0.000000 -0.010922
vn 0.999940 0.000000 -0.010922
vn -0.999940 0.000000 0.010922
vn -0.999940 0.000000 0.010922
vn -0.999940 0.000000 0.010922
vn -0.999940 0.000000 0.010922
vn 0.000000 -1.000000 0.000000
vn 0.000000 -1.000000 0.000000
vn 0.000000 -1.000000 0.000000
vn 0.000000 -1.000000 0.000000
vn -0.000000 1.000000 0.000000
vn -0.000000 1.000000 0.000000
vn -0.000000 1.000000 0.000000
vn -0.000000 1.000000 0.000000
vn 0.999940 0.000000 -0.010922
vn 0.999940 0.000000 -0.010922
vn 0.999940 0.000000 -0.010922
vn 0.999940 0.000000 -0.010922
vn -0.999940 0.000000 0.010922
vn -0.999940 0.000000 0.010922
vn -0.999940 0.000000 0.010922
vn -0.999940 0.000000 0.010922
vn 0.000000 -1.000000 0.000000
vn 0.000000 -1.000000 0.000000
vn 0.000000 -1.000000 0.000000
vn 0.000000 -1.000000 0.000000
vn -0.000000 1.000000 0.000000
vn -0.000000 1.000000 0.000000
vn -0.000000 1.000000 0.000000
vn -0.000000 1.000000 0.000000
vn 0.000000 -1.000000 0.000000
vn 0.000000 -1.000000 0.000000
vn 0.000000 -1.000000 0.000000
vn 0.000000 -1.000000 0.000000
vn 0.000000 -1.000000 0.000000
vn 0.000000 -1.000000 0.000000
vn 0.000000 -1.000000 0.000000
vn 0.000000 -1.000000 0.000000
vn -0.999940 0.000000 0.010922
vn -0.999940 0.000000 0.010922
vn -0.999940 0.000000 0.010922
vn -0.999940 0.000000 0.010922
vn -0.000000 1.000000 0.000000
vn -0.000000 1.000000 0.000000
vn -0.000000 1.000000 0.000000
vn -0.000000 1.000000 0.000000
vn -0.000000 1.000000 0.000000
vn -0.000000 1.000000 0.000000
vn -0.000000 1.000000 0.000000
vn -0.000000 1.000000 0.000000
vn -0.010922 0.000000 -0.999940
vn -0.010922 0.000000 -0.999940
vn -0.010922 0.000000 -0.999940
vn -0.010922 0.000000 -0.999940
vn 0.010922 0.000000 0.999940
vn 0.010922 0.000000 0.999940
vn 0.010922 0.000000 0.999940
vn 0.010922 0.000000 0.999940
vn 0.763484 0.000000 -0.645826
vn 0.763484 0.000000 -0.645826
vn 0.763484 0.000000 -0.645826
vn 0.763484 0.000000 -0.645826
vn 0.777409 0.000000 0.628995
vn 0.777409 0.000000 0.628995
vn 0.777409 0.000000 0.628995
vn 0.777409 0.000000 0.628995
vn -0.763484 0.000000 0.645826
vn -0.763484 0.000000 0.645826
vn -0.763484 0.000000 0.645826
vn -0.763484 0.000000 0.645826
vn -0.777409 0.000000 -0.628995
vn -0.777409 0.000000 -0.628995
vn -0.777409 0.000000 -0.628995
vn -0.777409 0.000000 -0.628995
vn 0.999940 0.000000 -0.010922
vn 0.999940 0.000000 -0.010922
vn 0.999940 0.000000 -0.010922
vn 0.999940 0.000000 -0.010922
s off
g low_table:Mesh
usemtl aiStandardSurface1SG
f 42/1/1 44/2/2 43/3/3 41/4/4
f 44/5/5 48/6/6 47/7/7 43/8/8
f 48/9/9 46/10/10 45/11/11 47/12/12
f 46/13/13 42/14/14 41/15/15 45/16/16
f 41/17/17 43/18/18 47/19/19 45/20/20
f 50/21/21 52/22/22 51/23/23 49/24/24
f 52/25/25 56/26/26 55/27/27 51/28/28
f 56/29/29 54/30/30 53/31/31 55/32/32
f 54/33/33 50/34/34 49/35/35 53/36/36
f 49/37/37 51/38/38 55/39/39 53/40/40
f 58/41/41 60/42/42 59/43/43 57/44/44
f 60/45/45 64/46/46 63/47/47 59/48/48
f 64/49/49 62/50/50 61/51/51 63/52/52
f 62/53/53 58/54/54 57/55/55 61/56/56
f 57/57/57 59/58/58 63/59/59 61/60/60
f 66/61/61 68/62/62 67/63/63 65/64/64
f 68/65/65 72/66/66 71/67/67 67/68/68
f 72/69/69 70/70/70 69/71/71 71/72/72
f 70/73/73 66/74/74 65/75/75 69/76/76
f 65/77/77 67/78/78 71/79/79 69/80/80
f 4/81/81 8/82/82 7/83/83 3/84/84
f 6/85/85 2/86/86 1/87/87 5/88/88
f 1/89/89 3/90/90 7/91/91 5/92/92
f 6/93/93 8/94/94 4/95/95 2/96/96
f 12/97/97 16/98/98 15/99/99 11/100/100
f 14/101/101 10/102/102 9/103/103 13/104/104
f 9/105/105 11/106/106 15/107/107 13/108/108
f 14/109/109 16/110/110 12/111/111 10/112/112
f 20/113/113 24/114/114 23/115/115 19/116/116
f 22/117/117 18/118/118 17/119/119 21/120/120
f 17/121/121 19/122/122 23/123/123 21/124/124
f 22/125/125 24/126/126 20/127/127 18/128/128
f 28/129/129 32/130/130 31/131/131 27/132/132
f 30/133/133 26/134/134 25/135/135 29/136/136
f 25/137/137 27/138/138 31/139/139 29/140/140
f 30/141/141 32/142/142 28/143/143 26/144/144
f 36/145/145 40/146/146 39/147/147 35/148/148
f 38/149/149 34/150/150 33/151/151 37/152/152
f 33/153/153 35/154/154 39/155/155 37/156/156
f 38/157/157 40/158/158 36/159/159 34/160/160
f 92/161/161 96/162/162 95/163/163 91/164/164
f 94/165/165 90/166/166 89/167/167 93/168/168
f 89/169/169 91/170/170 95/171/171 93/172/172
f 94/173/173 96/174/174 92/175/175 90/176/176
f 100/177/177 104/178/178 103/179/179 99/180/180
f 102/181/181 98/182/182 97/183/183 101/184/184
f 97/185/185 99/186/186 103/187/187 101/188/188
f 102/189/189 104/190/190 100/191/191 98/192/192
f 108/193/193 112/194/194 111/195/195 107/196/196
f 110/197/197 106/198/198 105/199/199 109/200/200
f 105/201/201 107/202/202 111/203/203 109/204/204
f 110/205/205 112/206/206 108/207/207 106/208/208
f 116/209/209 120/210/210 119/211/211 115/212/212
f 118/213/213 114/214/214 113/215/215 117/216/216
f 113/217/217 115/218/218 119/219/219 117/220/220
f 118/221/221 120/222/222 116/223/223 114/224/224
f 73/225/225 74/226/226 77/227/227 78/228/228 85/229/229 86/230/230 81/231/231 82/232/232
f 87/233/233 84/234/234 81/235/235 86/236/236
f 83/237/237 84/238/238 87/239/239 88/240/240 79/241/241 80/242/242 75/243/243 76/244/244
f 83/245/245 76/246/246 73/247/247 82/248/248
f 79/249/249 88/250/250 85/251/251 78/252/252
f 73/253/253 76/254/254 75/243/255 74/255/256
f 79/256/257 78/257/258 77/258/259 80/242/260
f 87/259/261 86/260/262 85/251/263 88/250/264
f 83/245/265 82/248/266 81/261/267 84/262/268
f 75/243/269 80/242/270 77/258/271 74/255/272
